<?xml version="1.0" encoding="utf-8"?>
<!-- Generator: Adobe Illustrator 16.0.0, SVG Export Plug-In . SVG Version: 6.00 Build 0)  -->
<!DOCTYPE svg PUBLIC "-//W3C//DTD SVG 1.1//EN" "http://www.w3.org/Graphics/SVG/1.1/DTD/svg11.dtd">
<svg version="1.1" id="Layer_1" xmlns="http://www.w3.org/2000/svg" xmlns:xlink="http://www.w3.org/1999/xlink" x="0px" y="0px"
	 width="130px" height="100px" viewBox="0 0 130 100" style="enable-background:new 0 0 130 100;" xml:space="preserve">
<g>
	<g>
		<path style="fill:#0085BA;" d="M126.157,99.902H3.843C1.726,99.902,0,98.178,0,96.055V3.945c0-2.122,1.726-3.848,3.843-3.848
			h122.314c2.116,0,3.843,1.726,3.843,3.848v92.11C130,98.178,128.273,99.902,126.157,99.902z M3.843,2.021
			c-1.059,0-1.919,0.86-1.919,1.924v92.11c0,1.064,0.86,1.924,1.919,1.924h122.314c1.06,0,1.919-0.858,1.919-1.924V3.945
			c0-1.064-0.859-1.924-1.919-1.924H3.843z"/>
	</g>
	<g>
		<g>
			<g>
				<path style="fill:#0085BA;" d="M63.691,88.904c0,1.588-1.224,2.879-2.729,2.879h-47.54c-1.511,0-2.728-1.291-2.728-2.879V67.035
					c0-1.598,1.217-2.883,2.728-2.883h47.541c1.505,0,2.729,1.285,2.729,2.883L63.691,88.904L63.691,88.904z"/>
			</g>
		</g>
		<g>
			<path style="fill:#0085BA;" d="M91.639,88.904c0,1.588-1.439,2.879-3.221,2.879H73.271c-1.779,0-3.226-1.291-3.226-2.879V67.035
				c0-1.6,1.445-2.883,3.226-2.883h15.146c1.78,0,3.222,1.283,3.222,2.883V88.904L91.639,88.904z"/>
		</g>
		<g>
			<path style="fill:#0085BA;" d="M119.307,88.904c0,1.588-1.441,2.879-3.221,2.879h-15.148c-1.778,0-3.221-1.291-3.221-2.879
				V67.035c0-1.6,1.441-2.883,3.221-2.883h15.148c1.777,0,3.221,1.283,3.221,2.883V88.904z"/>
		</g>
	</g>
</g>
</svg>
