<?xml version="1.0" encoding="utf-8"?>
<!-- Generator: Adobe Illustrator 16.0.0, SVG Export Plug-In . SVG Version: 6.00 Build 0)  -->
<!DOCTYPE svg PUBLIC "-//W3C//DTD SVG 1.1//EN" "http://www.w3.org/Graphics/SVG/1.1/DTD/svg11.dtd">
<svg version="1.1" id="Layer_1" xmlns="http://www.w3.org/2000/svg" xmlns:xlink="http://www.w3.org/1999/xlink" x="0px" y="0px"
	 width="130px" height="100px" viewBox="0 0 130 100" enable-background="new 0 0 130 100" xml:space="preserve">
<g>
	<g>
		<path fill="#0586BB" d="M126.156,99.902H3.844C1.725,99.902,0,98.178,0,96.057V3.944c0-2.121,1.725-3.846,3.844-3.846h122.313
			c2.118,0,3.844,1.725,3.844,3.846v92.113C130,98.178,128.274,99.902,126.156,99.902z M3.844,2.021
			c-1.06,0-1.921,0.861-1.921,1.923v92.113c0,1.061,0.861,1.922,1.921,1.922h122.313c1.06,0,1.921-0.861,1.921-1.922V3.944
			c0-1.062-0.861-1.923-1.921-1.923H3.844z"/>
	</g>
	<g>
		<g>
			<path fill="#0586BB" d="M115.942,18.229H52.146c-1.062,0-1.921-0.862-1.921-1.923s0.859-1.923,1.921-1.923h63.797
				c1.063,0,1.923,0.862,1.923,1.923S117.006,18.229,115.942,18.229z"/>
		</g>
		<g>
			<path fill="#0586BB" d="M41.043,19.154c0,1.509-1.223,2.734-2.735,2.734H16.791c-1.511,0-2.733-1.225-2.733-2.734v-5.696
				c0-1.511,1.222-2.734,2.733-2.734h21.518c1.512,0,2.735,1.223,2.735,2.734V19.154z"/>
		</g>
	</g>
</g>
</svg>
